<svg width="21" height="19" viewBox="0 0 21 19" fill="none" xmlns="http://www.w3.org/2000/svg">
<path d="M5.31614 0.000754133C3.9521 0.000754133 2.59162 0.556449 1.55456 1.65884C-0.519317 3.86323 -0.517057 7.39585 1.55456 9.60231L10.2975 18.9151C10.3484 18.9692 10.4203 19 10.4952 19C10.5704 19 10.6421 18.9692 10.693 18.9151C13.6116 15.8126 16.5258 12.7129 19.4446 9.61033C21.5185 7.40574 21.5185 3.87096 19.4446 1.66638C17.3707 -0.538207 13.9955 -0.538207 11.9216 1.66638L10.4995 3.17584L9.07747 1.65808C8.04045 0.555695 6.68016 0 5.31588 0L5.31614 0.000754133ZM5.31614 0.520342C6.53107 0.520342 7.74278 1.0149 8.68213 2.01345L10.3061 3.73742C10.3572 3.79156 10.4288 3.82231 10.5039 3.82231C10.579 3.82231 10.6508 3.79156 10.7017 3.73742L12.3175 2.0298C14.196 0.0327602 17.1707 0.0329489 19.0494 2.0298C20.9279 4.02665 20.9279 7.25915 19.0494 9.25586C16.1981 12.287 13.3513 15.3153 10.4998 18.3462L1.95024 9.23936C0.0732214 7.24029 0.0717306 4.01002 1.95024 2.0133C2.88959 1.01476 4.10122 0.520342 5.31614 0.520342Z" fill="#7B6F67"/>
</svg>
