<svg width="33" height="33" viewBox="0 0 33 33" fill="none" xmlns="http://www.w3.org/2000/svg">
<path d="M11.7124 17.1905L22.8325 26.9762C22.9611 27.0894 23.117 27.1673 23.2848 27.2021C23.4526 27.237 23.6266 27.2277 23.7897 27.1751C23.9528 27.1225 24.0995 27.0284 24.2153 26.9021C24.3311 26.7758 24.4121 26.6215 24.4504 26.4545L29.1021 6.15616C29.1423 5.98066 29.1339 5.79751 29.0777 5.62645C29.0215 5.45539 28.9198 5.30291 28.7833 5.18543C28.6469 5.06795 28.481 4.98993 28.3035 4.95977C28.1259 4.92962 27.9436 4.94848 27.776 5.01431L4.95182 13.981C4.7529 14.0591 4.58463 14.1996 4.4722 14.3813C4.35976 14.5631 4.30921 14.7763 4.32809 14.9892C4.34697 15.2021 4.43428 15.4031 4.57695 15.5623C4.71962 15.7214 4.90998 15.83 5.11955 15.872L11.7124 17.1905Z" stroke="white" stroke-linecap="round" stroke-linejoin="round"/>
<path d="M11.7129 17.1904L28.5459 5.0332" stroke="white" stroke-linecap="round" stroke-linejoin="round"/>
<path d="M17.2666 22.0777L13.4018 25.9424C13.2635 26.0807 13.0872 26.175 12.8953 26.2131C12.7034 26.2513 12.5044 26.2317 12.3236 26.1568C12.1429 26.082 11.9883 25.9552 11.8796 25.7925C11.7709 25.6298 11.7129 25.4385 11.7129 25.2428V17.1904" stroke="white" stroke-linecap="round" stroke-linejoin="round"/>
</svg>
