<svg width="25" height="21" viewBox="0 0 25 21" fill="none" xmlns="http://www.w3.org/2000/svg">
<path d="M14.19 1.05552C14.1413 1.10261 14.1023 1.15885 14.0754 1.22101C14.0484 1.28318 14.0339 1.35004 14.0328 1.4178C14.0317 1.48555 14.044 1.55286 14.0689 1.61587C14.0938 1.67888 14.1309 1.73636 14.1781 1.78503L22.4401 10.3223L1.00075 9.97108C0.864016 9.96884 0.731992 10.021 0.633722 10.1161C0.535452 10.2112 0.478988 10.3415 0.476748 10.4782C0.474508 10.6149 0.526675 10.7469 0.621777 10.8452C0.716878 10.9435 0.847122 11 0.983857 11.0022L22.4232 11.3535L13.8859 19.6155C13.8372 19.6626 13.7983 19.7189 13.7714 19.781C13.7444 19.8432 13.73 19.9101 13.7289 19.9778C13.7278 20.0456 13.74 20.1128 13.7649 20.1759C13.7898 20.2389 13.8269 20.2964 13.874 20.345C13.9211 20.3937 13.9773 20.4327 14.0395 20.4596C14.1017 20.4866 14.1685 20.501 14.2363 20.5021C14.304 20.5032 14.3713 20.491 14.4343 20.4661C14.4973 20.4412 14.5548 20.4041 14.6035 20.357L24.0355 11.229C24.0843 11.1819 24.1232 11.1257 24.1502 11.0635C24.1772 11.0014 24.1916 10.9345 24.1927 10.8668C24.1938 10.799 24.1816 10.7317 24.1567 10.6687C24.1317 10.6057 24.0946 10.5482 24.0475 10.4995L14.9195 1.06747C14.8724 1.01875 14.8162 0.979793 14.754 0.952821C14.6919 0.925852 14.625 0.911399 14.5572 0.910289C14.4895 0.909179 14.4222 0.921433 14.3592 0.946352C14.2962 0.971273 14.2387 1.00837 14.19 1.05552Z" fill="#2C2B2B" fill-opacity="0.8"/>
</svg>
