<svg width="24" height="24" viewBox="0 0 24 24" fill="none" xmlns="http://www.w3.org/2000/svg">
<path d="M8.24914 12.6441L16.6789 20.0623C16.7764 20.1481 16.8946 20.2071 17.0218 20.2336C17.149 20.26 17.2809 20.2529 17.4045 20.213C17.5282 20.1732 17.6394 20.1019 17.7272 20.0061C17.815 19.9103 17.8764 19.7934 17.9054 19.6668L21.4317 4.27935C21.4622 4.14631 21.4558 4.00747 21.4132 3.8778C21.3706 3.74812 21.2934 3.63253 21.19 3.54347C21.0866 3.45441 20.9608 3.39527 20.8262 3.37241C20.6917 3.34955 20.5534 3.36385 20.4264 3.41375L3.1242 10.211C2.97341 10.2703 2.84585 10.3768 2.76062 10.5145C2.67538 10.6523 2.63706 10.814 2.65137 10.9754C2.66569 11.1368 2.73187 11.2892 2.84002 11.4098C2.94818 11.5304 3.09248 11.6128 3.25135 11.6445L8.24914 12.6441Z" stroke="#303030" stroke-linecap="round" stroke-linejoin="round"/>
<path d="M8.25 12.6442L21.0105 3.42822" stroke="#303030" stroke-linecap="round" stroke-linejoin="round"/>
<path d="M12.46 16.3494L9.53033 19.2791C9.42544 19.384 9.2918 19.4554 9.14632 19.4843C9.00083 19.5133 8.85003 19.4984 8.71299 19.4416C8.57594 19.3849 8.45881 19.2888 8.3764 19.1654C8.29399 19.0421 8.25 18.8971 8.25 18.7487V12.6445" stroke="#303030" stroke-linecap="round" stroke-linejoin="round"/>
</svg>
